<?xml version="1.0" encoding="utf-8"?>
<!-- Generator: Adobe Illustrator 19.1.0, SVG Export Plug-In . SVG Version: 6.00 Build 0)  -->
<svg version="1.1" id="Layer_1" xmlns="http://www.w3.org/2000/svg" xmlns:xlink="http://www.w3.org/1999/xlink" x="0px" y="0px"
	 viewBox="0 0 600 600" style="enable-background:new 0 0 600 600;" xml:space="preserve">
<style type="text/css">
	.st0{fill:#FF0000;}
	.st1{fill:#FFFFFF;}
	.st2{fill:#EC1C24;}
</style>
<g>
	<path class="st0" d="M0,600C0,400,0,200,0,0c200,0,400,0,600,0c0,200,0,400,0,600c-3-0.1-6-0.2-9-0.2c-194,0-388,0-582,0
		C6,599.8,3,599.9,0,600z M547.9,304.2c-0.1-13.8-3.5-24.1-11.1-32.6c-8.9-9.9-17.9-19.7-27.3-29.2c-28.2-28.3-56.6-56.4-84.9-84.6
		c-29.2-29.2-58.4-58.4-87.5-87.6c-6.7-6.7-14.5-11.8-23.3-15c-10.4-3.9-20.3-3.5-30.7,1.9c-13.3,7-23.1,17.9-33.8,27.7
		c-12.5,11.4-23.7,24.2-35.8,36c-24.1,23.4-48.4,46.5-72.5,70c-12.4,12.1-24.3,24.6-36.6,36.8c-11.3,11.2-23,22.1-34.3,33.5
		c-4.4,4.5-8.5,9.4-11.9,14.7c-9,14-9.9,28.9-2.2,43.5c4.1,7.8,9.7,15.2,15.9,21.6c18.8,19.2,38.3,37.8,57.5,56.7
		c21.2,21,42.3,42.2,63.5,63.3c22.5,22.3,45.1,44.3,67.5,66.7c8.8,8.8,19.4,13.9,31.4,16c4.8,0.8,9.9,0.1,14.8-0.4
		c10.8-1.3,19.1-7.4,26.6-14.6c27.4-26.2,54.6-52.5,81.9-78.8c16.8-16.2,33.6-32.3,50.3-48.5c10-9.7,20.1-19.4,30-29.2
		c13.5-13.3,26.9-26.7,40.2-40.2C543.5,323.3,547.3,313.2,547.9,304.2z"/>
	<path class="st1" d="M546.2,303.2c-0.6,9-4.3,19.1-12.3,27.3c-13.2,13.5-26.6,26.8-40.1,40.1c-9.9,9.8-19.9,19.5-29.9,29.1
		c-16.7,16.1-33.4,32.2-50.1,48.3c-27.2,26.2-54.3,52.5-81.6,78.6c-7.5,7.2-15.8,13.3-26.5,14.6c-4.9,0.6-10,1.3-14.8,0.4
		c-11.9-2.1-22.5-7.2-31.3-15.9c-22.3-22.3-44.9-44.3-67.3-66.5c-21.2-21-42.1-42.1-63.3-63.1c-19.1-18.9-38.5-37.4-57.3-56.6
		c-6.2-6.3-11.7-13.7-15.8-21.5c-7.7-14.5-6.8-29.5,2.2-43.4c3.4-5.3,7.5-10.2,11.9-14.6c11.2-11.3,22.9-22.1,34.2-33.4
		c12.2-12.1,24.1-24.7,36.4-36.7c24-23.4,48.3-46.4,72.3-69.8c12.1-11.8,23.3-24.5,35.7-35.9c10.7-9.8,20.4-20.7,33.7-27.6
		c10.3-5.4,20.2-5.7,30.6-1.9c8.8,3.3,16.6,8.3,23.2,15c29.1,29.2,58.1,58.3,87.2,87.4c28.2,28.1,56.5,56.1,84.6,84.3
		c9.4,9.4,18.3,19.2,27.2,29.1C542.7,279.2,546,289.5,546.2,303.2z M84.2,296.4c-0.3,10.3,4.3,16.1,9.5,21.3
		c20.9,20.7,42.2,41.1,63.2,61.8c11.6,11.4,22.6,23.3,34.1,34.7c20.3,20.1,40.6,40.1,61,60c10.2,10,20.3,20,31,29.5
		c10.1,9,21.1,8.7,31.5,0.1c2-1.7,3.9-3.6,5.8-5.5c19.2-18.8,38.3-37.6,57.5-56.3c32.8-31.9,65.6-63.8,98.3-95.7
		c9.5-9.2,19.4-18.1,28.1-28c12.7-14.4,13.6-21.4-0.7-36.7c-6.8-7.2-13.9-14.2-21-21.2c-31.4-31.4-62.8-62.7-94.2-94.1
		c-22-22-43.9-44.1-65.9-66c-3.7-3.7-7.7-7.3-12-10.3c-8.8-6.2-15-6.1-23.6,0.5c-5,3.8-9.5,8.3-14,12.7
		c-20.5,20.3-40.8,40.8-61.4,61c-15.4,15.1-31,29.9-46.5,44.9c-16.9,16.4-33.8,32.7-50.7,49.2c-7.3,7.2-14.7,14.3-21.8,21.7
		C87.5,285.2,84.6,291.5,84.2,296.4z"/>
	<path class="st0" d="M84.2,296.4c0.4-5,3.3-11.2,8.3-16.4c7.1-7.4,14.5-14.6,21.8-21.7c16.9-16.4,33.8-32.8,50.7-49.2
		c15.5-15,31.1-29.8,46.5-44.9c20.6-20.2,40.9-40.7,61.4-61c4.5-4.4,9-8.9,14-12.7c8.6-6.6,14.8-6.7,23.6-0.5c4.3,3,8.3,6.6,12,10.3
		c22,22,43.9,44,65.9,66c31.4,31.4,62.8,62.7,94.2,94.1c7,7,14.2,13.9,21,21.2c14.3,15.3,13.4,22.3,0.7,36.7
		c-8.7,9.9-18.6,18.8-28.1,28c-32.8,31.9-65.6,63.8-98.3,95.7c-19.2,18.7-38.3,37.5-57.5,56.3c-1.9,1.9-3.8,3.8-5.8,5.5
		c-10.4,8.6-21.4,8.9-31.5-0.1c-10.7-9.5-20.8-19.5-31-29.5c-20.4-19.9-40.8-39.9-61-60c-11.5-11.4-22.6-23.3-34.1-34.7
		c-21-20.7-42.3-41.1-63.2-61.8C88.5,312.6,83.8,306.8,84.2,296.4z M248.3,199.4c0.7,4.3,1.2,6.2,1.2,8.1c0.1,8.3,0.1,16.5,0.2,24.8
		c0.2,10.3,5.7,14.2,15.7,11.3c10.2-3,15.5-10,15.6-21.4c0.2-23.3,0.2-46.5,0.3-69.8c0-2,0-4-0.4-6c-1.5-7.8-8-11.1-14.9-7.2
		c-4,2.2-7.7,5.2-11.1,8.4c-8.9,8.4-17.5,17.2-26.3,25.8c-31.8,31-63.7,62-95.6,93.1c-5.7,5.6-10.8,11.7-14,19.2
		c-2.8,6.4-3.3,12.5-0.9,19.2c2.9,8.4,7.5,15.5,13.6,21.7c9.8,9.9,19.7,19.7,29.6,29.5c27.4,27.4,54.7,55,82.3,82.2
		c4.4,4.4,9.8,7.9,15.3,11c9.1,5.1,18.3,0.7,20.5-9.4c0.9-4.2,1.4-8.5,1.4-12.8c0.1-39.5,0.1-79.1,0.2-118.6c0-2,0.1-4-0.1-6
		c-1.2-10.1-6.9-15.4-17-15.5c-12.3-0.2-24.6-0.1-36.9-0.1c-6.3,0-12.6,0.1-18.9,0.1c-4.3,0-8.2,1.5-10,5.3
		c-6.6,14-0.7,23.2,12.1,24.9c3.9,0.5,8,0.1,11.9,0.2c6.3,0,12.6-0.2,18.9,0.2c6,0.3,7.5,2.1,8.3,7.8c0.1,1,0.2,2,0.2,3
		c-0.1,19.9-0.2,39.9-0.4,59.8c0,1.5-0.7,3-1.3,5.2c-2-0.6-3.8-0.6-4.9-1.5c-3.9-3.1-7.7-6.3-11.3-9.8
		c-15.6-15.3-31.2-30.8-46.7-46.2c-8.5-8.4-17-16.8-25.4-25.3c-9-9.1-9.4-16.9,0.5-26.6c25.1-24.6,50.4-48.9,75.7-73.3
		C239.2,207.2,243,204.1,248.3,199.4z M403.9,307.4c7.2-7.2,13.5-13,19.4-19.4c4.7-5.1,9.5-10.3,13.2-16.1
		c5.3-8.3,3.7-23.2-2.8-30.7c-5-5.7-10.3-11.2-15.6-16.6c-6-6.2-12-12.4-18.1-18.4c-21.8-21.4-43.5-42.8-65.5-63.9
		c-7.2-6.9-16.4-4-19.4,5.5c-1.2,3.7-1.5,7.8-1.6,11.8c-0.3,41.2-0.4,82.4-0.5,123.6c-0.1,50.5,0,101,0,151.5c0,2.7-0.3,5.3,0,8
		c0.8,7.5,6.1,11,13.3,8.5c10.5-3.6,16.6-9.2,16.5-21.8c-0.1-16.9,0.4-33.9,0-50.8c-0.2-8.6,2.1-15.4,8.8-21.1
		c7.3-6.2,14.2-12.9,21.3-19.5c6.4-6,6.9-5.9,14.5-1.7c13.9,7.8,28,15,41.8,23c7.9,4.6,14.5,2.8,21.1-2c8.5-6.2,8.7-15.5,0-21.2
		c-6.3-4.2-13.2-7.5-19.9-11.2C421.3,319.9,412.4,315,403.9,307.4z"/>
	<path class="st1" d="M248.3,199.4c-5.3,4.7-9.1,7.8-12.6,11.2c-25.3,24.4-50.6,48.7-75.7,73.3c-9.9,9.7-9.4,17.5-0.5,26.6
		c8.4,8.5,16.9,16.9,25.4,25.3c15.6,15.4,31.1,30.9,46.7,46.2c3.5,3.5,7.4,6.7,11.3,9.8c1.1,0.9,2.9,0.9,4.9,1.5
		c0.5-2.1,1.3-3.6,1.3-5.2c0.2-19.9,0.3-39.9,0.4-59.8c0-1,0-2-0.2-3c-0.7-5.7-2.3-7.5-8.3-7.8c-6.3-0.4-12.6-0.1-18.9-0.2
		c-4,0-8,0.4-11.9-0.2c-12.8-1.7-18.8-11-12.1-24.9c1.8-3.8,5.7-5.4,10-5.3c6.3,0,12.6-0.1,18.9-0.1c12.3,0,24.6-0.1,36.9,0.1
		c10.1,0.1,15.8,5.5,17,15.5c0.2,2,0.1,4,0.1,6c0,39.5,0,79.1-0.2,118.6c0,4.3-0.5,8.6-1.4,12.8c-2.2,10.1-11.4,14.5-20.5,9.4
		c-5.5-3-10.9-6.6-15.3-11c-27.6-27.3-54.9-54.8-82.3-82.2c-9.8-9.9-19.8-19.7-29.6-29.5c-6.2-6.2-10.7-13.3-13.6-21.7
		c-2.4-6.8-1.8-12.8,0.9-19.2c3.3-7.5,8.3-13.6,14-19.2c31.8-31.1,63.7-62.1,95.6-93.1c8.8-8.6,17.4-17.3,26.3-25.8
		c3.3-3.2,7.1-6.1,11.1-8.4c6.9-3.8,13.4-0.5,14.9,7.2c0.4,1.9,0.4,4,0.4,6c0,23.3,0,46.5-0.3,69.8c-0.1,11.5-5.5,18.5-15.6,21.4
		c-10,2.9-15.5-0.9-15.7-11.3c-0.2-8.3-0.1-16.5-0.2-24.8C249.5,205.5,249,203.6,248.3,199.4z"/>
	<path class="st1" d="M403.9,307.4c8.5,7.6,17.4,12.5,26.4,17.5c6.7,3.7,13.6,7,19.9,11.2c8.7,5.8,8.5,15,0,21.2
		c-6.6,4.8-13.2,6.6-21.1,2c-13.7-8-27.9-15.2-41.8-23c-7.6-4.2-8.1-4.3-14.5,1.7c-7,6.6-13.9,13.3-21.3,19.5
		c-6.7,5.7-8.9,12.5-8.8,21.1c0.3,16.9-0.1,33.9,0,50.8c0.1,12.6-6,18.2-16.5,21.8c-7.2,2.5-12.5-1-13.3-8.5c-0.3-2.6,0-5.3,0-8
		c0-50.5-0.1-101,0-151.5c0.1-41.2,0.3-82.4,0.5-123.6c0-3.9,0.4-8,1.6-11.8c3-9.6,12.2-12.4,19.4-5.5
		c22.1,21.1,43.8,42.5,65.5,63.9c6.1,6,12.1,12.2,18.1,18.4c5.3,5.5,10.6,10.9,15.6,16.6c6.5,7.5,8.1,22.4,2.8,30.7
		c-3.7,5.8-8.5,11-13.2,16.1C417.4,294.4,411.1,300.3,403.9,307.4z M345.6,318.1c2.9-1.5,5.6-2.1,7.2-3.8
		c16.2-16.1,32.4-32.3,48.3-48.6c5.2-5.3,5.1-9.5,0.1-14.6c-15.4-15.6-30.9-31-46.4-46.5c-2.3-2.2-4.5-5.1-9.6-3.4
		c-0.6,5.7-1.6,11.8-1.8,17.9C341.9,263.7,342.7,308.8,345.6,318.1z"/>
	<path class="st2" d="M345.6,318.1c-2.9-9.2-3.7-54.4-2.1-99c0.2-6.1,1.2-12.2,1.8-17.9c5.1-1.7,7.3,1.1,9.6,3.4
		c15.5,15.4,31,30.9,46.4,46.5c5,5.1,5.1,9.3-0.1,14.6c-16,16.4-32.1,32.5-48.3,48.6C351.2,315.9,348.5,316.6,345.6,318.1z"/>
</g>
</svg>
